<?xml version="1.0" standalone="no"?>
<!DOCTYPE svg PUBLIC "-//W3C//DTD SVG 20010904//EN"
 "http://www.w3.org/TR/2001/REC-SVG-20010904/DTD/svg10.dtd">
<svg version="1.0" xmlns="http://www.w3.org/2000/svg"
 width="500.000000pt" height="500.000000pt" viewBox="0 0 500.000000 500.000000"
 preserveAspectRatio="xMidYMid meet">

<g transform="translate(0.000000,500.000000) scale(0.100000,-0.100000)"
fill="#442288" stroke="none">
<path d="M165 4987 c-26 -6 -57 -28 -91 -62 -43 -42 -54 -61 -63 -106 -9 -40
-11 -629 -9 -2349 l3 -2295 22 -41 c33 -61 96 -111 157 -124 36 -8 708 -10
2346 -8 l2295 3 40 22 c47 25 85 64 111 113 18 34 19 111 19 2360 l0 2325 -22
40 c-12 22 -36 54 -55 72 -70 68 120 63 -2417 62 -1564 -1 -2309 -4 -2336 -12z
m1815 -2069 c0 -768 -3 -841 -36 -978 -55 -225 -209 -394 -431 -471 -165 -57
-412 -63 -597 -15 -173 45 -351 149 -434 253 l-31 39 141 171 140 170 82 -82
c59 -60 99 -91 151 -116 67 -33 75 -34 185 -34 129 0 165 12 227 77 86 89 95
169 91 833 l-3 510 -392 3 -393 2 0 205 0 205 650 0 650 0 0 -772z m1885 749
c299 -61 485 -202 540 -412 19 -75 19 -214 0 -288 -32 -124 -116 -244 -216
-308 -27 -18 -49 -35 -49 -39 0 -3 17 -12 38 -19 105 -37 227 -139 281 -235
62 -109 87 -244 70 -379 -37 -300 -265 -469 -694 -517 -51 -5 -364 -10 -717
-10 l-628 0 0 1116 0 1115 648 -4 c544 -3 660 -7 727 -20z"/>
<path d="M3002 3038 l3 -263 300 1 c314 1 387 8 459 45 95 49 138 117 138 218
0 36 -5 78 -11 92 -15 40 -69 98 -112 120 -83 42 -147 49 -472 49 l-307 0 2
-262z"/>
<path d="M3000 2125 l0 -276 388 3 c420 4 430 5 524 65 77 48 118 155 99 259
-18 98 -77 158 -190 196 -62 21 -86 22 -443 26 l-378 3 0 -276z"/>
</g>
</svg>
